HIERARCHY
ROOT Bip001_Pelvis
{
  OFFSET 7.937 94.8971 -8.5489
  CHANNELS 6 Xposition Yposition Zposition Zrotation Xrotation Yrotation
  JOINT Bip001_Spine
  {
    OFFSET 1.44608e-005 10.4157 -0.0118244
    CHANNELS 3 Zrotation Xrotation Yrotation
    JOINT Bip001_L_Thigh
    {
      OFFSET 11.2582 -10.4157 0.0118432
      CHANNELS 3 Zrotation Xrotation Yrotation
      JOINT Bip001_L_Calf
      {
        OFFSET -0.720717 -44.8687 0.366937
        CHANNELS 3 Zrotation Xrotation Yrotation
        JOINT Bip001_L_Foot
        {
          OFFSET -0.664439 -41.3745 -3.62995
          CHANNELS 3 Zrotation Xrotation Yrotation
          JOINT Bip001_L_Toe0
          {
            OFFSET 0.0541047 -10.4146 13.4033
            CHANNELS 3 Zrotation Xrotation Yrotation
            End Site
            {
              OFFSET -1.04503e-005 0 7.70137
            }
          }
        }
      }
    }
    JOINT Bip001_R_Thigh
    {
      OFFSET -11.2582 -10.4156 0.0118122
      CHANNELS 3 Zrotation Xrotation Yrotation
      JOINT Bip001_R_Calf
      {
        OFFSET 0.72059 -44.8687 0.36676
        CHANNELS 3 Zrotation Xrotation Yrotation
        JOINT Bip001_R_Foot
        {
          OFFSET 0.664321 -41.3745 -3.62979
          CHANNELS 3 Zrotation Xrotation Yrotation
          JOINT Bip001_R_Toe0
          {
            OFFSET -0.05417 -10.4146 13.4033
            CHANNELS 3 Zrotation Xrotation Yrotation
            End Site
            {
              OFFSET -1.04873e-005 0 7.70137
            }
          }
        }
      }
    }
    JOINT Bip001_Spine1
    {
      OFFSET 1.90638e-005 14.8539 1.10727
      CHANNELS 3 Zrotation Xrotation Yrotation
      JOINT Bip001_Spine2
      {
        OFFSET 2.28934e-005 14.7848 -1.7233
        CHANNELS 3 Zrotation Xrotation Yrotation
        JOINT Bip001_Neck
        {
          OFFSET 2.24514e-005 15.6905 -0.498826
          CHANNELS 3 Zrotation Xrotation Yrotation
          JOINT Bip001_L_Clavicle
          {
            OFFSET 6.17691 -0.000591152 0.00852867
            CHANNELS 3 Zrotation Xrotation Yrotation
            JOINT Bip001_L_UpperArm
            {
              OFFSET 11.773 -0.0611878 0.00197697
              CHANNELS 3 Zrotation Xrotation Yrotation
              JOINT Bip001_L_Forearm
              {
                OFFSET 26.4515 0.0817568 -2.19579
                CHANNELS 3 Zrotation Xrotation Yrotation
                JOINT Bip001_L_Hand
                {
                  OFFSET 32.8677 0.156744 1.67112
                  CHANNELS 3 Zrotation Xrotation Yrotation
                  JOINT Bip001_L_Finger0
                  {
                    OFFSET 6.16268 -2.25226 6.01674
                    CHANNELS 3 Zrotation Xrotation Yrotation
                    End Site
                    {
                      OFFSET 4.30499 -1.46662 0.618148
                    }
                  }
                  JOINT Bip001_L_Finger1
                  {
                    OFFSET 11.2957 -0.718374 -0.201963
                    CHANNELS 3 Zrotation Xrotation Yrotation
                    End Site
                    {
                      OFFSET 6.31952 -0.405163 -0.0802303
                    }
                  }
                }
              }
            }
          }
          JOINT Bip001_R_Clavicle
          {
            OFFSET -6.17691 -0.000574027 0.00851165
            CHANNELS 3 Zrotation Xrotation Yrotation
            JOINT Bip001_R_UpperArm
            {
              OFFSET -11.773 -0.0611516 0.00194365
              CHANNELS 3 Zrotation Xrotation Yrotation
              JOINT Bip001_R_Forearm
              {
                OFFSET -26.4514 0.0822334 -2.19736
                CHANNELS 3 Zrotation Xrotation Yrotation
                JOINT Bip001_R_Hand
                {
                  OFFSET -32.8677 0.156817 1.67144
                  CHANNELS 3 Zrotation Xrotation Yrotation
                  JOINT Bip001_R_Finger0
                  {
                    OFFSET -6.1627 -2.25224 6.0167
                    CHANNELS 3 Zrotation Xrotation Yrotation
                    End Site
                    {
                      OFFSET -4.30499 -1.46662 0.618134
                    }
                  }
                  JOINT Bip001_R_Finger1
                  {
                    OFFSET -11.2958 -0.718344 -0.201994
                    CHANNELS 3 Zrotation Xrotation Yrotation
                    End Site
                    {
                      OFFSET -6.31952 -0.405146 -0.0802475
                    }
                  }
                }
              }
            }
          }
          JOINT Bip001_Head
          {
            OFFSET 1.11782e-005 11.4912 2.09908
            CHANNELS 3 Zrotation Xrotation Yrotation
            End Site
            {
              OFFSET 2.95144e-005 21.2823 -2.83069e-005
            }
          }
        }
      }
    }
  }
}
MOTION
Frames:	16
Frame Time:	0.04
8.21875 95.4034 -8.00733 -0.568669 0.855049 12.8289 -0.589839 0.789355 3.1319 4.64194 -12.6928 3.17506 -0.487662 16.4749 -5.76336 -2.13536 -5.16694 -3.63013 0.618773 -10.03 -0.319483 -7.22318 -3.3387 -5.80962 0.665042 13.087 -2.42695 0.737453 -8.66661 -14.4303 -0.0648778 -11.5909 0.219236 -1.24449 1.54455 6.27493 -1.2445 1.54456 6.27495 -9.30332 4.41104 5.45811 -24.4496 3.95577 -16.8917 -37.6271 38.7674 -1.79876 13.382 6.08843 -24.2211 -4.16817 0.11214 -0.955976 -3.18055e-015 6.36111e-015 3.18055e-015 -1.59028e-015 9.54167e-015 -0 16.8618 -1.01233 23.0684 -12.4936 14.4122 55.1724 -46.4016 11.9827 40.0179 -35.2161 18.2605 -11.2788 2.78298e-015 -1.27222e-014 -1.59028e-015 1.98785e-015 -9.54167e-015 -2.38542e-015 -2.10709 11.6923 2.93498 
8.17683 95.4064 -8.00745 -0.566114 0.718145 12.6726 -0.578893 0.839883 3.02874 4.74756 -12.5722 4.01215 -0.304677 16.4785 -6.18633 -2.19191 -5.18164 -3.82426 0.619834 -10.0296 -0.313809 -7.16348 -3.32466 -5.46163 0.695899 13.0927 -2.3989 0.67041 -8.63925 -14.5415 -0.0564319 -11.5916 0.21063 -1.22517 1.64729 6.0689 -1.22517 1.6473 6.06893 -10.1101 4.53375 6.00648 -23.7827 3.73203 -16.7514 -37.8242 39.1492 -1.6098 13.2217 6.28525 -23.7276 -4.41996 0.103731 -1.05463 0 0 -1.59028e-015 -1.59028e-015 0 -3.18055e-015 17.6231 -1.22262 23.4761 -10.0611 14.8409 53.2545 -46.6664 9.76994 41.9781 -34.7583 18.914 -11.3039 7.95139e-016 -3.18055e-015 -0 -7.95139e-016 0 1.19271e-015 -1.5169 11.6764 3.0074 
8.12876 95.4064 -8.04235 -0.639473 0.700037 12.3926 -0.568523 0.848619 3.04059 4.83679 -12.6258 2.416 -0.752954 16.5609 -4.93106 -2.19494 -5.26477 -3.19541 0.627654 -10.0271 -0.270158 -7.07403 -3.43396 -5.39668 0.669992 13.0905 -2.27785 0.654188 -8.57719 -14.4727 -0.067166 -11.5923 0.221422 -1.20419 1.65649 6.09164 -1.2042 1.6565 6.09166 -10.3007 4.83137 5.88564 -23.7462 3.4188 -16.7526 -38.0955 39.4819 -1.3767 12.8833 6.59852 -22.9856 -4.69988 0.0511659 -1.13455 4.77083e-015 0 -0 1.59028e-015 0 -0 18.9878 -1.27034 23.5466 -6.9245 13.8217 52.3078 -47.0199 11.5071 45.0385 -36.1509 17.7511 -9.53498 3.97569e-015 6.36111e-015 -4.77083e-015 3.18055e-015 6.36111e-015 -3.57812e-015 -1.17245 11.6699 2.69552 
8.16374 95.4186 -8.0494 -0.546997 0.599253 12.071 -0.593283 0.889057 3.06087 4.76021 -12.4085 2.54601 -0.65753 16.4028 -4.8027 -2.24071 -5.23468 -3.1759 0.627731 -10.0241 -0.279205 -7.19427 -3.43214 -5.83544 0.622856 13.1212 -1.78313 0.678853 -8.55335 -14.2352 -0.084401 -11.5927 0.248268 -1.26222 1.74432 6.13357 -1.26223 1.74432 6.1336 -9.94568 4.88709 5.39908 -23.8962 3.27578 -16.6273 -38.6873 39.7792 -1.10319 12.7272 6.7481 -22.3455 -5.25893 -0.0332984 -1.14834 0 0 -1.59028e-015 3.18055e-015 0 -1.59028e-015 19.799 -1.04644 23.2061 -6.13282 14.6222 51.0628 -48.9244 11.5312 48.3817 -36.7899 16.5861 -7.68259 1.19271e-015 3.18055e-015 -6.95746e-015 5.1684e-015 0 -7.7526e-015 -1.15099 12.0596 2.33051 
8.17906 95.4253 -8.06508 -0.537057 0.534945 11.7227 -0.597558 0.859351 3.0905 4.78144 -12.2399 2.73125 -0.604013 16.3689 -4.71783 -2.26782 -5.2667 -3.15712 0.629113 -10.0213 -0.265376 -7.22576 -3.41723 -5.9538 0.589346 13.1103 -1.6868 0.783625 -8.50879 -13.925 -0.141711 -11.5929 0.307894 -1.27752 1.68417 6.19206 -1.27752 1.68417 6.19207 -9.2211 5.61094 4.66694 -24.9483 2.63553 -16.706 -39.1763 39.7933 -0.255216 12.3408 6.5624 -21.9794 -4.97442 -0.0445461 -1.14657 1.59028e-015 9.54166e-015 -0 1.59028e-015 3.18056e-015 1.59028e-015 21.3866 -1.13979 23.0894 -8.67342 18.3709 49.07 -49.4713 7.77203 51.3092 -36.331 15.6315 -6.70103 -1.19271e-015 0 -7.95139e-015 0 0 -1.11319e-014 -1.34557 12.3627 1.87511 
8.21469 95.4305 -8.07363 -0.465642 0.418546 11.3407 -0.627961 0.90974 2.93242 4.81161 -12.0326 2.99519 -0.597398 16.2819 -4.50718 -2.28297 -5.28166 -3.10728 0.629036 -10.0194 -0.255713 -7.29293 -3.47304 -5.71187 0.608554 13.1616 -1.64105 0.867801 -8.50181 -13.6976 -0.194985 -11.5934 0.350866 -1.34583 1.78496 5.87655 -1.34583 1.78497 5.87657 -9.12154 5.96985 4.52122 -24.8768 2.05068 -16.3379 -39.7759 39.5551 -0.195346 12.1639 6.61277 -21.6301 -4.76578 -0.00254596 -1.11692 1.59028e-015 3.18055e-015 3.18055e-015 1.59028e-015 3.18056e-015 3.18055e-015 22.888 -1.0668 23.3814 -8.9753 21.8333 47.3307 -49.7119 5.85985 54.3023 -34.4182 14.3997 -6.93502 -4.77083e-015 -9.54166e-015 1.59028e-015 -3.97569e-015 -3.18056e-015 -0 -0.732782 12.5045 1.54504 
8.26072 95.434 -8.10149 -0.384256 0.385357 11.06 -0.666012 0.929323 2.76978 4.76765 -11.8995 2.64135 -0.712969 16.1627 -4.06195 -2.27261 -5.26898 -2.76738 0.631419 -10.0081 -0.229791 -7.39682 -3.58941 -5.55853 0.633252 13.2674 -1.59646 0.960567 -8.51734 -13.4982 -0.247071 -11.5946 0.409592 -1.42766 1.82407 5.55166 -1.42766 1.82407 5.55167 -8.39092 6.48884 3.98443 -25.4611 1.34861 -16.0112 -40.4843 39.3065 0.135669 12.0644 6.50214 -21.5047 -4.63002 -0.0417339 -1.09149 1.59028e-015 9.54166e-015 -3.18055e-015 3.53113e-031 1.27222e-014 -1.59028e-015 24.4225 -0.973838 23.317 -8.11915 25.1293 45.9057 -48.2 6.04442 57.1315 -32.4566 12.9583 -6.5541 3.18055e-015 1.27222e-014 3.18055e-015 -1.59028e-015 1.27222e-014 4.77083e-015 -0.620985 12.7734 1.20325 
8.24275 95.4409 -8.06043 -0.388289 0.13773 10.6293 -0.675151 0.988569 2.63548 4.95818 -11.6169 2.77278 -0.828449 16.1895 -3.83394 -2.2796 -5.36695 -2.57087 0.632097 -10.0043 -0.213006 -7.29723 -3.48753 -5.30815 0.586453 13.2084 -1.45697 0.963826 -8.44591 -13.3255 -0.246962 -11.6039 0.439142 -1.45072 1.94369 5.28408 -1.45072 1.94369 5.28409 -7.57992 7.05576 3.33142 -26.0084 0.611269 -15.8222 -41.1518 39.3278 0.46347 11.8446 6.2359 -21.4884 -4.5841 -0.0632013 -1.20166 2.64834e-031 9.54166e-015 -1.59028e-015 2.64834e-031 9.54167e-015 -1.59028e-015 25.8619 -0.893186 23.2909 -7.49392 30.4931 44.0761 -46.3685 5.22045 58.1621 -27.6395 13.209 -6.80379 1.59028e-015 -6.36111e-015 1.59028e-015 1.59028e-015 -3.18056e-015 4.77083e-015 -0.30649 12.8391 0.711301 
8.24749 95.4418 -8.01343 -0.344737 -0.147749 10.1652 -0.685516 1.06936 2.51886 5.08397 -11.2599 4.04125 -0.593186 16.1875 -4.42165 -2.31303 -5.46485 -2.72295 0.630592 -10.0009 -0.210174 -7.28428 -3.39861 -5.09845 0.570566 13.2435 -1.31708 0.994678 -8.4319 -13.1082 -0.270584 -11.6086 0.486321 -1.46936 2.10635 5.05139 -1.46936 2.10636 5.05142 -6.56748 7.58459 2.46971 -26.6274 -0.110642 -15.6562 -41.9572 39.7359 0.775902 11.789 5.75018 -21.4762 -4.4869 -0.0948013 -1.24206 1.59028e-015 9.54166e-015 -0 3.18055e-015 9.54167e-015 -1.59028e-015 27.9294 -0.516271 23.3155 -7.82838 36.6031 42.209 -42.7903 4.51748 57.7335 -20.3547 12.153 -7.74912 0 0 -0 0 0 -6.36111e-015 -0.220679 12.817 0.168713 
8.25993 95.4399 -7.99042 -0.258007 -0.355046 9.77824 -0.67698 1.1755 2.33725 5.07653 -11.0128 4.08746 -0.641598 16.1257 -4.19249 -2.33706 -5.51838 -2.47655 0.636428 -9.99723 -0.16832 -7.37743 -3.44077 -4.7752 0.605343 13.3627 -1.3017 1.04825 -8.47559 -12.898 -0.31284 -11.6071 0.523242 -1.46429 2.32105 4.68993 -1.46382 2.32105 4.68999 -5.69135 7.96226 1.75172 -26.8045 -0.775556 -15.4066 -42.8431 40.1451 0.705057 11.8544 5.69 -21.4946 -4.45357 -0.160258 -1.29754 3.18055e-015 0 -4.77083e-015 4.77083e-015 0 -6.36111e-015 29.4554 -0.140729 23.4058 -7.23879 43.2776 40.4388 -37.1615 3.21505 54.7955 -15.5828 11.0287 -9.65006 7.95139e-016 -4.77083e-015 3.18055e-015 1.59028e-015 -3.18056e-015 3.18055e-015 -0.154147 12.6254 -0.262491 
8.2702 95.4371 -8.00731 -0.180385 -0.571636 9.42154 -0.630829 1.26633 2.12686 5.00057 -10.7876 2.99018 -0.972227 16.0531 -3.21849 -2.30965 -5.5689 -1.80638 0.64553 -9.97586 -0.112944 -7.47003 -3.49414 -4.37584 0.59808 13.4968 -1.19655 1.08955 -8.50259 -12.8233 -0.347689 -11.6048 0.53272 -1.37605 2.50703 4.26918 -1.37605 2.50704 4.26918 -4.94569 8.34856 1.09502 -27.1458 -1.36759 -15.2374 -43.8534 40.2709 0.886489 12.1596 5.96622 -21.6571 -4.17123 -0.0980213 -1.19792 3.53112e-031 -6.36111e-015 3.18055e-015 3.18055e-015 -3.18056e-015 1.59028e-015 31.0324 0.212422 23.5063 -4.93856 49.9389 37.809 -31.1786 0.964052 50.1125 -9.74152 10.4648 -12.2164 2.38542e-015 -2.38542e-015 -0 -2.38542e-015 -3.18056e-015 -3.18055e-015 -0.119556 12.5819 -0.666093 
8.25834 95.4369 -8.0564 -0.176475 -0.665968 8.99611 -0.583018 1.35174 1.93834 5.02508 -10.7196 2.62271 -1.16488 16.0369 -2.68607 -2.31144 -5.61553 -1.38784 0.660762 -9.963 -0.0544738 -7.51744 -3.69746 -4.03782 0.59069 13.5952 -1.14353 1.1523 -8.47572 -12.6372 -0.39781 -11.6025 0.574714 -1.28629 2.68166 3.89172 -1.28629 2.68166 3.89174 -4.14991 8.45949 0.367752 -27.6246 -1.76111 -14.8182 -44.8569 41.9407 1.50706 12.9546 4.62198 -22.0454 -4.62762 -0.16618 -1.3666 1.59028e-015 3.18055e-015 4.77083e-015 1.59028e-015 -3.18056e-015 3.18055e-015 32.3285 0.690857 23.2483 -0.126905 54.8416 33.825 -26.1255 -0.266724 44.1903 -1.0822 7.3507 -14.287 6.36111e-015 3.18055e-015 -3.18055e-015 3.18055e-015 -3.18056e-015 -6.36111e-015 -0.116436 12.6338 -1.09711 
8.25778 95.4387 -8.13366 -0.181545 -0.680014 8.62132 -0.542691 1.42162 1.73502 5.12955 -10.6539 8.055 0.181631 16.0308 -6.16933 -2.45066 -5.56201 -2.87067 0.633875 -9.97516 -0.126349 -7.57763 -3.95929 -3.88047 0.553505 13.6749 -0.997803 1.23311 -8.42976 -12.3969 -0.450726 -11.6002 0.611102 -1.20901 2.82488 3.48454 -1.20901 2.82488 3.48452 -3.22488 8.66373 -0.40694 -28.1921 -2.18639 -14.6337 -45.3975 42.3616 1.97857 13.1357 3.95831 -22.8001 -4.47147 -0.17907 -1.26541 -1.59028e-015 3.18055e-015 -0 0 3.18056e-015 -0 33.1464 0.825272 22.5715 4.73232 58.472 30.1829 -17.4249 -5.12296 37.7559 5.14893 4.94001 -15.5324 -3.18055e-015 -6.36111e-015 1.59028e-015 -3.18055e-015 -3.18056e-015 3.18055e-015 -0.217536 12.4667 -1.49659 
8.28037 95.4484 -8.20393 -0.194121 -0.810453 7.8545 -0.503896 1.51078 1.59031 5.17432 -10.5192 5.33903 -0.746172 15.9969 -3.68467 -2.33928 -5.65082 -1.66316 0.646469 -9.95669 -0.052976 -7.61906 -4.18304 -3.28126 0.576741 13.6738 -0.884855 1.30185 -8.30306 -12.2256 -0.51389 -11.5978 0.643328 -1.13934 3.00571 3.19438 -1.13935 3.00571 3.19439 -2.30804 8.87625 -1.06304 -28.7877 -2.5659 -14.5754 -45.9082 42.283 2.5032 13.3255 3.7088 -23.5559 -4.18748 -0.168466 -1.26292 -1.76556e-031 6.36111e-015 1.59028e-015 1.59028e-015 3.18056e-015 -0 33.4197 0.810215 22.0335 11.5347 60.2798 25.5445 -9.72055 -9.82961 29.4173 8.18009 2.30837 -13.7253 -6.36111e-015 -3.18055e-015 -3.97569e-016 -6.36111e-015 -3.18056e-015 -0 -0.372971 12.3851 -1.76307 
8.30454 95.457 -8.37698 -0.238738 -0.563992 6.85659 -0.45544 1.50348 1.43057 5.257 -10.6265 6.26792 -0.754979 15.945 -3.58953 -2.3312 -5.65479 -1.51033 0.648567 -9.94998 -0.0401008 -7.72162 -4.86596 -2.26267 0.698989 13.7735 -1.05436 1.41329 -8.149 -12.0203 -0.620606 -11.5832 0.699408 -1.05088 2.99383 2.87174 -1.05088 2.99383 2.87175 -2.01402 9.07824 -1.36328 -29.0306 -2.93587 -14.2986 -46.265 42.2219 3.00894 13.439 3.46598 -24.3772 -3.71726 -0.0646457 -1.60475 -3.18055e-015 0 -0 -1.76556e-031 6.36111e-015 1.59028e-015 34.3081 1.06643 22.2884 20.9241 58.5849 18.3105 -3.6864 -14.5391 20.1683 10.8598 0.655834 -12.2293 0 0 -1.19271e-015 1.59028e-015 -1.59028e-015 -9.93923e-016 -0.20234 12.565 -2.00913 
8.41372 95.4626 -8.34434 -0.155046 -0.847101 6.63183 -0.37646 1.62152 1.14912 5.06457 -10.3146 6.30077 -0.724599 15.8478 -3.37321 -2.31504 -5.69037 -1.3158 0.653146 -9.9464 -0.00637519 -7.98617 -4.69788 -2.80963 0.625407 13.6958 -0.479705 1.57471 -8.12624 -11.5343 -0.707352 -11.5779 0.746428 -0.898631 3.23402 2.30758 -0.898632 3.23402 2.30758 -2.00427 9.36676 -1.54695 -28.9419 -3.35908 -14.0978 -46.497 42.581 3.06687 13.4566 3.07398 -24.7806 -2.97569 -0.151926 -1.40715 -1.59028e-015 9.54166e-015 -4.77083e-015 -3.18055e-015 6.36111e-015 -3.18055e-015 35.1811 1.25968 22.8045 30.0321 55.7114 9.27293 -0.485458 -19.7583 15.4396 12.8888 0.207799 -15.1938 3.97569e-016 3.18055e-015 1.68967e-015 3.97569e-016 3.18056e-015 3.27995e-015 0.157645 12.3833 -2.30937 
